<svg width="64" height="65" viewBox="0 0 64 65" fill="none" xmlns="http://www.w3.org/2000/svg">
<rect y="0.5" width="64" height="64" rx="5" fill="#EDF1FA"/>
<path d="M32.0019 17.6851C28.1204 17.6851 24.9648 20.8406 24.9648 24.7221C24.9648 28.5295 27.9426 31.611 31.8241 31.7443C31.9426 31.7295 32.0611 31.7295 32.15 31.7443C32.1797 31.7443 32.1945 31.7443 32.2241 31.7443C32.2389 31.7443 32.2389 31.7443 32.2537 31.7443C36.0463 31.611 39.0241 28.5295 39.0389 24.7221C39.0389 20.8406 35.8834 17.6851 32.0019 17.6851Z" fill="#4D76CE"/>
<path d="M39.5259 35.7C35.3925 32.9444 28.6518 32.9444 24.4888 35.7C22.6073 36.9444 21.5703 38.6481 21.5703 40.4703C21.5703 42.2926 22.6073 43.9814 24.474 45.2259C26.5481 46.6185 29.274 47.3148 31.9999 47.3148C34.7259 47.3148 37.4518 46.6185 39.5259 45.2259C41.3925 43.9666 42.4296 42.2777 42.4296 40.4407C42.4148 38.6333 41.3925 36.9296 39.5259 35.7ZM35.4518 39.2555L31.7185 42.9889C31.5407 43.1666 31.3036 43.2555 31.0666 43.2555C30.8296 43.2555 30.5925 43.1518 30.4148 42.9889L28.5481 41.1222C28.1925 40.7666 28.1925 40.174 28.5481 39.8185C28.9036 39.4629 29.4962 39.4629 29.8518 39.8185L31.0666 41.0333L34.1481 37.9518C34.5036 37.5963 35.0962 37.5963 35.4518 37.9518C35.8222 38.3074 35.8222 38.9 35.4518 39.2555Z" fill="#4D76CE"/>
</svg>
