<svg width="64" height="65" viewBox="0 0 64 65" fill="none" xmlns="http://www.w3.org/2000/svg">
<rect y="0.5" width="64" height="64" rx="5" fill="#FBE8E8"/>
<path d="M32.0013 19.6665C28.508 19.6665 25.668 22.5065 25.668 25.9998C25.668 29.4265 28.348 32.1998 31.8413 32.3198C31.948 32.3065 32.0546 32.3065 32.1346 32.3198C32.1613 32.3198 32.1746 32.3198 32.2013 32.3198C32.2146 32.3198 32.2146 32.3198 32.228 32.3198C35.6413 32.1998 38.3213 29.4265 38.3346 25.9998C38.3346 22.5065 35.4946 19.6665 32.0013 19.6665Z" fill="#DD0000"/>
<path d="M38.7733 35.8668C35.0533 33.3868 28.9866 33.3868 25.2399 35.8668C23.5466 37.0002 22.6133 38.5335 22.6133 40.1735C22.6133 41.8135 23.5466 43.3335 25.2266 44.4535C27.0933 45.7068 29.5466 46.3335 31.9999 46.3335C34.4533 46.3335 36.9066 45.7068 38.7733 44.4535C40.4533 43.3202 41.3866 41.8002 41.3866 40.1468C41.3733 38.5068 40.4533 36.9868 38.7733 35.8668ZM34.5866 41.3468C34.9733 41.7335 34.9733 42.3735 34.5866 42.7602C34.3866 42.9602 34.1333 43.0535 33.8799 43.0535C33.6266 43.0535 33.3733 42.9602 33.1733 42.7602L31.9999 41.5868L30.8266 42.7602C30.6266 42.9602 30.3733 43.0535 30.1199 43.0535C29.8666 43.0535 29.6133 42.9602 29.4133 42.7602C29.0266 42.3735 29.0266 41.7335 29.4133 41.3468L30.5866 40.1735L29.4133 39.0002C29.0266 38.6135 29.0266 37.9735 29.4133 37.5868C29.7999 37.2002 30.4399 37.2002 30.8266 37.5868L31.9999 38.7602L33.1733 37.5868C33.5599 37.2002 34.1999 37.2002 34.5866 37.5868C34.9733 37.9735 34.9733 38.6135 34.5866 39.0002L33.4133 40.1735L34.5866 41.3468Z" fill="#DD0000"/>
</svg>
