<svg width="64" height="65" viewBox="0 0 64 65" fill="none" xmlns="http://www.w3.org/2000/svg">
<rect y="0.5" width="64" height="64" rx="5" fill="#EFF7EB"/>
<path d="M32.0013 19.6665C28.508 19.6665 25.668 22.5065 25.668 25.9998C25.668 29.4265 28.348 32.1998 31.8413 32.3198C31.948 32.3065 32.0546 32.3065 32.1346 32.3198C32.1613 32.3198 32.1746 32.3198 32.2013 32.3198C32.2146 32.3198 32.2146 32.3198 32.228 32.3198C35.6413 32.1998 38.3213 29.4265 38.3346 25.9998C38.3346 22.5065 35.4946 19.6665 32.0013 19.6665Z" fill="#5EB237"/>
<path d="M38.7733 35.8668C35.0533 33.3868 28.9866 33.3868 25.2399 35.8668C23.5466 37.0002 22.6133 38.5335 22.6133 40.1735C22.6133 41.8135 23.5466 43.3335 25.2266 44.4535C27.0933 45.7068 29.5466 46.3335 31.9999 46.3335C34.4533 46.3335 36.9066 45.7068 38.7733 44.4535C40.4533 43.3202 41.3866 41.8002 41.3866 40.1468C41.3733 38.5068 40.4533 36.9868 38.7733 35.8668Z" fill="#5EB237"/>
</svg>
