<svg width="24" height="24" viewBox="0 0 24 24" fill="none" xmlns="http://www.w3.org/2000/svg">
<path fill-rule="white" clip-rule="evenodd" d="M7.50003 6.00684C7.50003 3.52155 9.51474 1.50684 12 1.50684C14.4853 1.50684 16.5 3.52155 16.5 6.00684C16.5 8.49212 14.4853 10.5068 12 10.5068C9.51474 10.5068 7.50003 8.49212 7.50003 6.00684Z" fill="white"/>
<path fill-rule="evenodd" clip-rule="evenodd" d="M3.75127 20.1122C3.82861 15.6224 7.49201 12.0068 12 12.0068C16.5082 12.0068 20.1716 15.6226 20.2488 20.1125C20.2539 20.4103 20.0824 20.6828 19.8117 20.807C17.4327 21.8986 14.7865 22.5068 12.0003 22.5068C9.21389 22.5068 6.56746 21.8985 4.18835 20.8067C3.91768 20.6825 3.74614 20.4099 3.75127 20.1122Z" fill="white"/>
</svg>
